<svg width="100" height="100" viewBox="0 0 100 100" fill="none" xmlns="http://www.w3.org/2000/svg">
<path d="M96.535 53.9492C95.8318 46.0566 94.6736 44.5195 94.2361 43.9414C93.2303 42.6055 91.6209 41.7324 89.9178 40.8164C89.8215 40.7655 89.7383 40.6929 89.6749 40.6043C89.6114 40.5157 89.5694 40.4136 89.5522 40.3061C89.5349 40.1985 89.5429 40.0884 89.5755 39.9844C89.6081 39.8805 89.6645 39.7855 89.7401 39.707C90.0555 39.3872 90.2979 39.0028 90.4506 38.5803C90.6033 38.1579 90.6628 37.7074 90.6248 37.2598C90.5514 36.466 90.1823 35.7289 89.5908 35.1946C88.9993 34.6602 88.2285 34.3677 87.4315 34.375H84.3846C84.254 34.3758 84.1236 34.3843 83.9939 34.4004C83.905 34.3618 83.8129 34.3311 83.7186 34.3086C81.9139 30.4941 79.4432 25.2715 74.3221 22.7227C66.7264 18.9453 52.7342 18.75 49.9998 18.75C47.2654 18.75 33.2733 18.9453 25.6873 22.7168C20.5662 25.2656 18.0955 30.4883 16.2908 34.3027L16.2752 34.334C16.1852 34.3466 16.0968 34.3689 16.0115 34.4004C15.8819 34.3843 15.7515 34.3758 15.6209 34.375H12.5682C11.7711 34.3677 11.0004 34.6602 10.4089 35.1946C9.81735 35.7289 9.44827 36.466 9.37481 37.2598C9.34012 37.7063 9.40226 38.1551 9.55698 38.5755C9.7117 38.9958 9.95536 39.3778 10.2713 39.6953C10.3469 39.7738 10.4032 39.8687 10.4358 39.9727C10.4684 40.0766 10.4764 40.1868 10.4592 40.2943C10.4419 40.4019 10.3999 40.504 10.3365 40.5926C10.273 40.6811 10.1899 40.7538 10.0936 40.8047C8.39044 41.7266 6.77325 42.5996 5.7752 43.9297C5.3377 44.5156 4.18145 46.0449 3.47638 53.9375C3.08575 58.3789 3.02716 62.9766 3.3338 65.9375C3.97638 72.0898 5.18145 75.8086 5.23224 75.9629C5.41715 76.5244 5.75755 77.0219 6.21389 77.3977C6.67024 77.7735 7.22382 78.0121 7.81036 78.0859V78.125C7.81036 78.9538 8.1396 79.7487 8.72565 80.3347C9.3117 80.9208 10.1066 81.25 10.9354 81.25H21.8729C22.7017 81.25 23.4965 80.9208 24.0826 80.3347C24.6686 79.7487 24.9979 78.9538 24.9979 78.125C26.6795 78.125 27.8494 77.8242 29.0897 77.5039C30.8802 77.0214 32.7105 76.7005 34.5584 76.5449C40.5174 75.9766 46.4432 75.7812 49.9998 75.7812C53.4842 75.7812 59.6717 75.9766 65.6404 76.5449C67.4957 76.7008 69.3331 77.0231 71.1307 77.5078C72.3182 77.8125 73.4451 78.0937 75.0057 78.123C75.0057 78.9518 75.3349 79.7467 75.921 80.3328C76.507 80.9188 77.3019 81.248 78.1307 81.248H89.0682C89.897 81.248 90.6918 80.9188 91.2779 80.3328C91.8639 79.7467 92.1932 78.9518 92.1932 78.123V78.0996C92.7811 78.0272 93.3364 77.7892 93.7942 77.4133C94.252 77.0374 94.5936 76.5392 94.7791 75.9766C94.8299 75.8223 96.035 72.1035 96.6775 65.9512C96.9842 62.9883 96.9295 58.3984 96.535 53.9492ZM21.9393 36.9746C23.5018 33.6543 25.2889 29.8965 28.4705 28.3125C33.0682 26.0234 42.5975 24.9922 49.9998 24.9922C57.4022 24.9922 66.9315 26.0156 71.5291 28.3125C74.7108 29.8965 76.4901 33.6562 78.0604 36.9746L78.2557 37.3984C78.3699 37.6397 78.4204 37.9062 78.4023 38.1726C78.3843 38.4389 78.2983 38.6962 78.1526 38.9199C78.0069 39.1435 77.8063 39.3261 77.5699 39.4503C77.3336 39.5744 77.0694 39.6359 76.8026 39.6289C70.3123 39.4531 56.6404 38.8906 49.9998 38.8906C43.3592 38.8906 29.6873 39.4668 23.1873 39.6426C22.9205 39.6496 22.6563 39.5881 22.4199 39.4639C22.1836 39.3398 21.983 39.1572 21.8373 38.9335C21.6916 38.7099 21.6056 38.4526 21.5875 38.1862C21.5695 37.9199 21.62 37.6534 21.7342 37.4121C21.8025 37.2676 21.8748 37.1211 21.9393 36.9746ZM24.2693 52.5273C20.9096 52.9317 17.5283 53.1313 14.1443 53.125C12.074 53.125 9.93927 52.5391 9.54278 50.6953C9.2713 49.4551 9.30059 48.7578 9.44708 48.0566C9.57013 47.4609 9.76544 47.0273 10.742 46.875C13.2811 46.4844 14.701 46.9746 18.8572 48.1992C21.6131 49.0098 23.6014 50.0898 24.7342 50.9453C25.3025 51.3672 24.9998 52.4688 24.2693 52.5273ZM67.5076 68.543C64.9373 68.8359 59.7967 68.7285 50.0584 68.7285C40.3201 68.7285 35.1815 68.8359 32.6111 68.543C29.9588 68.248 26.5779 65.7402 28.8865 63.5059C30.4236 62.0332 34.0096 60.9316 38.785 60.3125C43.5604 59.6934 45.5818 59.375 50.0389 59.375C54.4959 59.375 56.3123 59.5703 61.2928 60.3145C66.2733 61.0586 70.0369 62.1738 71.1912 63.5078C73.2967 65.8984 70.158 68.2324 67.5076 68.5547V68.543ZM90.4568 50.6934C90.0662 52.5449 87.9178 53.123 85.8553 53.123C82.4065 53.1239 78.9606 52.9243 75.535 52.5254C74.9373 52.4688 74.66 51.4199 75.2654 50.9434C76.3807 50.0664 78.3904 49.0078 81.1424 48.1973C85.2986 46.9727 87.6951 46.4824 89.7537 46.8906C90.2557 46.9902 90.5213 47.5293 90.5526 47.8672C90.6903 48.808 90.6579 49.7659 90.4568 50.6953V50.6934Z" fill="white"/>
</svg>
