<svg width="100" height="100" viewBox="0 0 100 100" fill="none" xmlns="http://www.w3.org/2000/svg">
<g clip-path="url(#clip0)">
<path d="M18.563 37.3196L20.768 43.2979C20.8509 43.523 21.0652 43.6722 21.3047 43.6722C21.5443 43.6722 21.7586 43.523 21.8415 43.2979L24.0464 37.3196C25.8312 32.4798 29.6463 28.6646 34.4858 26.8802L40.4641 24.6753C40.6889 24.5924 40.8381 24.3781 40.8381 24.1385C40.8381 23.899 40.6889 23.6847 40.4641 23.6018L34.4855 21.3968C29.646 19.6121 25.8308 15.7972 24.0464 10.9578L21.8415 4.97947C21.7586 4.75473 21.5443 4.60547 21.3047 4.60547C21.0652 4.60547 20.8509 4.75473 20.768 4.97947L18.563 10.9578C16.7783 15.7972 12.9635 19.6121 8.12365 21.3968L2.145 23.6018C1.92026 23.6847 1.771 23.899 1.771 24.1385C1.771 24.3781 1.92026 24.5924 2.145 24.6753L8.12332 26.8802C12.9631 28.6646 16.7783 32.4795 18.563 37.3196Z" fill="white"/>
<path d="M67.0338 62.5707L61.0558 60.3661C56.216 58.5813 52.4008 54.7665 50.6164 49.927L48.4115 43.9487C48.3286 43.724 48.1143 43.5747 47.8747 43.5747C47.6352 43.5747 47.4209 43.724 47.338 43.9487L45.133 49.9267C43.3483 54.7665 39.5331 58.5813 34.6936 60.3661L28.7153 62.5707C28.4906 62.6536 28.3413 62.8679 28.3413 63.1074C28.3413 63.347 28.4906 63.5613 28.7153 63.6442L34.694 65.8495C39.5334 67.6342 43.3483 71.4491 45.133 76.2885L47.338 82.2672C47.4209 82.4919 47.6352 82.6412 47.8747 82.6412C48.1143 82.6412 48.3286 82.4919 48.4115 82.2672L50.6164 76.2885C52.4012 71.4491 56.216 67.6339 61.0555 65.8495L67.0341 63.6442C67.2589 63.5613 67.4081 63.347 67.4081 63.1074C67.4081 62.8679 67.2585 62.6536 67.0338 62.5707Z" fill="white"/>
<path d="M97.9749 36.9995L93.9117 35.5012C90.6228 34.2882 88.0301 31.6954 86.8171 28.4066L85.3187 24.3437C85.2621 24.1911 85.1166 24.0894 84.9538 24.0894C84.7911 24.0894 84.6455 24.1911 84.5889 24.3437L83.0909 28.4062C81.8779 31.6954 79.2851 34.2882 75.9959 35.5012L71.9331 36.9995C71.7805 37.0558 71.6787 37.2014 71.6787 37.3641C71.6787 37.5269 71.7805 37.6728 71.9331 37.729L75.9963 39.2271C79.2851 40.4404 81.8779 43.0331 83.0909 46.322L84.5889 50.3855C84.6455 50.5381 84.7911 50.6399 84.9538 50.6399C85.1166 50.6399 85.2621 50.5381 85.3187 50.3855L86.8171 46.322C88.0301 43.0328 90.6225 40.4404 93.9117 39.2274L97.9749 37.729C98.1275 37.6728 98.2292 37.5269 98.2292 37.3641C98.2292 37.2014 98.1275 37.0558 97.9749 36.9995Z" fill="white"/>
<path d="M88.1322 90.4857L85.2979 89.4402C83.0037 88.5941 81.1953 86.7858 80.3493 84.4919L79.3037 81.6582C79.2647 81.5517 79.1629 81.481 79.0493 81.481C78.9358 81.481 78.834 81.5517 78.795 81.6582L77.7494 84.4919C76.9034 86.7861 75.095 88.5945 72.8011 89.4402L69.9668 90.4857C69.8603 90.5248 69.7896 90.6265 69.7896 90.7401C69.7896 90.8536 69.8603 90.9554 69.9668 90.9945L72.8008 92.04C75.0954 92.8861 76.9037 94.6948 77.7498 96.989L78.7953 99.823C78.8344 99.9295 78.9361 100 79.0497 100C79.1632 100 79.265 99.9295 79.3041 99.823L80.3496 96.989C81.1957 94.6948 83.004 92.8861 85.2986 92.04L88.1326 90.9945C88.2391 90.9554 88.3098 90.8536 88.3098 90.7401C88.3098 90.6265 88.2391 90.5248 88.1322 90.4857Z" fill="white"/>
<path d="M67.2303 9.00505L64.396 7.95986C62.1018 7.11381 60.2934 5.30545 59.4477 3.01123L58.4022 0.177567C58.3631 0.0707573 58.2613 0 58.1478 0C58.0342 0 57.9325 0.0707573 57.8934 0.17723L56.8482 3.01056C56.0022 5.30478 54.1935 7.11347 51.8993 7.95953L49.0649 9.00471C48.9585 9.0438 48.8877 9.14555 48.8877 9.2591C48.8877 9.37265 48.9585 9.47441 49.0649 9.51349L51.8989 10.559C54.1935 11.4051 56.0022 13.2138 56.8482 15.5083L57.8934 18.342C57.9325 18.4485 58.0342 18.5192 58.1478 18.5192C58.2613 18.5192 58.3631 18.4485 58.4022 18.342L59.4477 15.508C60.2937 13.2134 62.1021 11.4051 64.3966 10.5594L67.2306 9.51383C67.3371 9.47474 67.4079 9.37299 67.4079 9.25944C67.4079 9.14589 67.3371 9.04414 67.2303 9.00505Z" fill="white"/>
<path d="M32.4671 84.6595L28.9023 83.3454C26.0167 82.2813 23.7417 80.0063 22.677 77.1204L21.3626 73.5556C21.3131 73.4218 21.1854 73.3325 21.0425 73.3325C20.8996 73.3325 20.7719 73.4218 20.7224 73.5556L19.408 77.1201C18.3439 80.006 16.0689 82.281 13.1827 83.3454L9.61856 84.6595C9.48412 84.7086 9.39551 84.8367 9.39551 84.9796C9.39551 85.1224 9.48446 85.2505 9.61856 85.2996L13.183 86.6144C16.0686 87.6784 18.3436 89.9535 19.408 92.8394L20.7224 96.4042C20.7719 96.5383 20.8996 96.6273 21.0425 96.6273C21.1854 96.6273 21.3134 96.5383 21.3626 96.4042L22.6773 92.839C23.7414 89.9535 26.0161 87.6788 28.9019 86.6144L32.4671 85.2996C32.6012 85.2505 32.6902 85.1224 32.6902 84.9796C32.6902 84.8367 32.6015 84.7086 32.4671 84.6595Z" fill="white"/>
</g>
<defs>
<clipPath id="clip0">
<rect width="100" height="100" fill="white"/>
</clipPath>
</defs>
</svg>
