<svg width="100" height="100" viewBox="0 0 100 100" fill="none" xmlns="http://www.w3.org/2000/svg">
<path d="M65.9998 8.3335C43.7915 27.2918 32.6665 43.6668 32.6665 57.5002C32.6665 78.2502 48.4998 91.6668 65.9998 91.6668C83.4998 91.6668 99.3332 78.2502 99.3332 57.5002C99.3332 43.6668 88.2082 27.2918 65.9998 8.3335ZM65.9998 83.3335C52.0415 83.3335 40.9998 72.6252 40.9998 57.5002C40.9998 47.7502 49.1248 34.8335 65.9998 19.4168C82.8748 34.8335 90.9998 47.7085 90.9998 57.5002C90.9998 72.6252 79.9582 83.3335 65.9998 83.3335ZM48.6248 58.3335C50.1665 58.3335 51.4165 59.4168 51.7082 60.9168C53.4165 70.1668 61.2082 73.3335 66.8748 72.8752C68.6665 72.7918 70.1665 74.2085 70.1665 76.0002C70.1665 77.6668 68.8332 79.0418 67.1665 79.1252C58.2915 79.6668 47.9165 74.5835 45.5415 61.9585C45.4691 61.5118 45.4946 61.0547 45.6162 60.6187C45.7378 60.1828 45.9526 59.7785 46.2459 59.4338C46.5391 59.0891 46.9037 58.8122 47.3144 58.6222C47.7252 58.4322 48.1723 58.3337 48.6248 58.3335Z" fill="white"/>
</svg>
