<svg width="100" height="100" viewBox="0 0 100 100" fill="none" xmlns="http://www.w3.org/2000/svg">
<path d="M87.5 50L100 62.5L84.375 68.75L87.5 87.5L68.75 84.375L62.5 100L50 87.5L37.5 100L31.25 84.375L12.5 87.5L15.625 68.75L0 62.5L12.5 50L0 37.5L15.625 31.25L12.5 12.5L31.25 15.625L37.5 0L50 12.5L62.5 0L68.75 15.625L87.5 12.5L84.375 31.25L100 37.5L87.5 50ZM34.375 25C31.7708 25 29.5573 26.2207 27.7344 28.6621C25.9115 31.1035 25 34.0495 25 37.5C25 40.9505 25.9115 43.8965 27.7344 46.3379C29.5573 48.7793 31.7708 50 34.375 50C36.9792 50 39.1927 48.7793 41.0156 46.3379C42.8385 43.8965 43.75 40.9505 43.75 37.5C43.75 34.0495 42.8385 31.1035 41.0156 28.6621C39.1927 26.2207 36.9792 25 34.375 25ZM65.625 25H62.5C62.2396 25 61.9954 25.0488 61.7676 25.1465C61.5397 25.2441 61.3607 25.3255 61.2305 25.3906C61.1003 25.4557 60.9212 25.6348 60.6934 25.9277C60.4655 26.2207 60.319 26.416 60.2539 26.5137C60.1888 26.6113 60.0423 26.8717 59.8145 27.2949C59.5866 27.7181 59.4401 27.9948 59.375 28.125L31.7383 71.875C31.2826 72.6562 31.3802 73.3724 32.0312 74.0234C32.6823 74.6745 33.4635 75 34.375 75H37.5C37.7604 75 37.972 74.9837 38.1348 74.9512C38.2975 74.9186 38.4766 74.8372 38.6719 74.707C38.8672 74.5768 39.0137 74.4629 39.1113 74.3652C39.209 74.2676 39.3392 74.0885 39.502 73.8281C39.6647 73.5677 39.7786 73.3724 39.8438 73.2422C39.9089 73.112 40.0391 72.8841 40.2344 72.5586C40.4297 72.2331 40.5599 72.0052 40.625 71.875L68.2617 28.125C68.7174 27.3438 68.6198 26.6276 67.9688 25.9766C67.3177 25.3255 66.5365 25 65.625 25ZM65.625 50C63.0208 50 60.8073 51.2207 58.9844 53.6621C57.1615 56.1035 56.25 59.0495 56.25 62.5C56.25 65.9505 57.1615 68.8965 58.9844 71.3379C60.8073 73.7793 63.0208 75 65.625 75C68.2292 75 70.4427 73.7793 72.2656 71.3379C74.0885 68.8965 75 65.9505 75 62.5C75 59.0495 74.0885 56.1035 72.2656 53.6621C70.4427 51.2207 68.2292 50 65.625 50ZM65.625 68.75C64.7786 68.75 64.0462 68.1315 63.4277 66.8945C62.8092 65.6576 62.5 64.1764 62.5 62.4512C62.5 60.7259 62.8092 59.2611 63.4277 58.0566C64.0462 56.8522 64.7786 56.25 65.625 56.25C66.4714 56.25 67.2038 56.8522 67.8223 58.0566C68.4408 59.2611 68.75 60.7259 68.75 62.4512C68.75 64.1764 68.4408 65.6576 67.8223 66.8945C67.2038 68.1315 66.4714 68.75 65.625 68.75ZM34.375 43.75C33.5286 43.75 32.7962 43.1315 32.1777 41.8945C31.5592 40.6576 31.25 39.1764 31.25 37.4512C31.25 35.7259 31.5592 34.2611 32.1777 33.0566C32.7962 31.8522 33.5286 31.25 34.375 31.25C35.2214 31.25 35.9538 31.8522 36.5723 33.0566C37.1908 34.2611 37.5 35.7259 37.5 37.4512C37.5 39.1764 37.1908 40.6576 36.5723 41.8945C35.9538 43.1315 35.2214 43.75 34.375 43.75Z" fill="white"/>
</svg>
