<svg width="153" height="90" viewBox="0 0 153 90" fill="none" xmlns="http://www.w3.org/2000/svg">
<path d="M41.795 59L41.76 42.76L33.71 56.2H31.68L23.63 42.97V59H19.29V34.5H23.035L32.765 50.74L42.32 34.5H46.065L46.1 59H41.795ZM68.7477 59L63.7427 51.825C63.5327 51.8483 63.2177 51.86 62.7977 51.86H57.2677V59H52.7177V34.5H62.7977C64.9211 34.5 66.7644 34.85 68.3277 35.55C69.9144 36.25 71.1277 37.2533 71.9677 38.56C72.8077 39.8667 73.2277 41.4183 73.2277 43.215C73.2277 45.0583 72.7727 46.645 71.8627 47.975C70.9761 49.305 69.6927 50.2967 68.0127 50.95L73.6477 59H68.7477ZM68.6427 43.215C68.6427 41.6517 68.1294 40.45 67.1027 39.61C66.0761 38.77 64.5711 38.35 62.5877 38.35H57.2677V48.115H62.5877C64.5711 48.115 66.0761 47.695 67.1027 46.855C68.1294 45.9917 68.6427 44.7783 68.6427 43.215Z" fill="#800083"/>
<path d="M117.175 46.225H123.3V56.375C121.9 57.3783 120.29 58.1483 118.47 58.685C116.65 59.2217 114.83 59.49 113.01 59.49C110.443 59.49 108.133 58.9533 106.08 57.88C104.026 56.7833 102.416 55.2667 101.25 53.33C100.083 51.3933 99.4996 49.2 99.4996 46.75C99.4996 44.3 100.083 42.1067 101.25 40.17C102.416 38.2333 104.038 36.7283 106.115 35.655C108.191 34.5583 110.536 34.01 113.15 34.01C115.436 34.01 117.49 34.395 119.31 35.165C121.13 35.935 122.646 37.0433 123.86 38.49L119.45 42.48C117.793 40.66 115.81 39.75 113.5 39.75C111.4 39.75 109.708 40.3917 108.425 41.675C107.141 42.935 106.5 44.6267 106.5 46.75C106.5 48.1033 106.791 49.3167 107.375 50.39C107.958 51.44 108.775 52.2683 109.825 52.875C110.875 53.4583 112.076 53.75 113.43 53.75C114.76 53.75 116.008 53.4817 117.175 52.945V46.225ZM137.983 39.995H130.458V34.5H152.403V39.995H144.913V59H137.983V39.995Z" fill="white"/>
<circle cx="45" cy="45" r="44" stroke="white" stroke-width="2"/>
</svg>
